<svg id="Layer_1" data-name="Layer 1" xmlns="http://www.w3.org/2000/svg" viewBox="0 0 349.74 111.37"><defs><style>.cls-1{fill:#3d3356;}.cls-2{fill:#f89d61;}.cls-3{fill:#ffdb8a;}.cls-4{fill:#ba365d;}.cls-5{fill:#fff;}.cls-6{fill:#b9365d;}</style></defs><title>Artboard 4</title><path class="cls-1" d="M49.48,32.86H40.84a68.1,68.1,0,0,0-8.5,10.42h.14a7,7,0,0,1,7.05,7V82.82h17V39.9a7,7,0,0,0-7-7"/><path class="cls-2" d="M65.69,17A67.69,67.69,0,0,0,40.81,32.86h8.67a7,7,0,0,1,7,7v43h35a7,7,0,0,0,7.07-6.93,6.91,6.91,0,0,0-1-3.63Z"/><path class="cls-3" d="M22.83,43.28H7a7,7,0,0,0-7,7V82.82L22.87,43.28"/><path class="cls-4" d="M58,3.57a7,7,0,0,0-12.2,0L22.83,43.28h9.48A67.93,67.93,0,0,1,65.69,17Z"/><path class="cls-2" d="M19.66,63.05A27.14,27.14,0,0,1,28.2,43.28H22.82L0,82.82H28.2A27.16,27.16,0,0,1,19.66,63.05Z"/><path class="cls-5" d="M32.48,43.28H28.19A27.15,27.15,0,0,0,27,81.66c.37.39.76.78,1.16,1.16H39.53V50.33A7,7,0,0,0,32.48,43.28Z"/><path class="cls-6" d="M151.89,56.51q-3.13-3.34-3.14-10.87V22.24L134.28,56.87H132.1l-17.72-36v36h-3.3V13.25h8.06l16,32.45,13.55-32.45h8.66V45.64q0,6.21,1.06,9.12a4.86,4.86,0,0,0,3.76,3.43v1.66Q155,59.85,151.89,56.51Z"/><path class="cls-6" d="M171.06,54.62q-3-2.9-3-9.25v-11a10.48,10.48,0,0,0-.92-5c-.62-1.08-1.85-1.62-3.7-1.62h-.67v-2h7.94a6.84,6.84,0,0,1,3.63.79,4.41,4.41,0,0,1,1.79,2.61,19.74,19.74,0,0,1,.52,5.19v11c0,3.3.47,5.65,1.39,7a4.76,4.76,0,0,0,4.23,2.08,5.27,5.27,0,0,0,3.61-1.32,10.49,10.49,0,0,0,2.34-3V25.81h8.6V56.87h-5.62l-2.32-3h-.33a10.83,10.83,0,0,1-8.26,3.63Q174,57.53,171.06,54.62Z"/><path class="cls-6" d="M205.31,21.84a10.36,10.36,0,0,0-.92-5c-.62-1.08-1.85-1.62-3.7-1.62H200v-2H208a6.82,6.82,0,0,1,3.63.79,4.36,4.36,0,0,1,1.79,2.61,19.67,19.67,0,0,1,.53,5.19v5.82a12,12,0,0,1,3.24-1.76,11.29,11.29,0,0,1,4-.76,14.38,14.38,0,0,1,9,2.75q3.6,2.74,3.6,9.35V56.87h-8.6V37.57c0-3.17-.56-5.49-1.68-6.94a5.18,5.18,0,0,0-4.26-2.18,8.25,8.25,0,0,0-5.29,2.31V56.87h-8.6Z"/><path class="cls-6" d="M242.93,55.12a8,8,0,0,1-3-6.51,9.23,9.23,0,0,1,1.56-5.49q1.54-2.17,5.45-3.3a40.84,40.84,0,0,1,10.84-1.13h1q0-5.74-1.58-8.16a5.26,5.26,0,0,0-4.7-2.41,6.85,6.85,0,0,0-4.23,1.25q-1.65,1.26-2.38,4.7H242.3a21.06,21.06,0,0,1,.3-3.84A5.64,5.64,0,0,1,244,27.46q2.06-2.31,9.92-2.32,6.6,0,10.08,3.47T267.42,39V56.87H261.8l-2.32-3h-.33a7.76,7.76,0,0,1-3.07,2.58,10.67,10.67,0,0,1-4.86,1.05Q245.87,57.53,242.93,55.12Zm13.74-2.21a7.9,7.9,0,0,0,2.15-3V41.67h-1q-4.69,0-6.81,1.68t-2.11,5.26A6.65,6.65,0,0,0,250,52.77a3.78,3.78,0,0,0,3.17,1.46A5,5,0,0,0,256.67,52.91Z"/><path class="cls-6" d="M275.57,21.84a10.48,10.48,0,0,0-.92-5c-.62-1.08-1.86-1.62-3.71-1.62h-.66v-2h7.93a6.86,6.86,0,0,1,3.64.79,4.41,4.41,0,0,1,1.79,2.61,19.74,19.74,0,0,1,.52,5.19v35h-8.59Z"/><path class="cls-1" d="M113.38,82a7.76,7.76,0,0,1-2.91-3.15,10.22,10.22,0,0,1,0-8.9,7.76,7.76,0,0,1,2.91-3.15,8.65,8.65,0,0,1,8.62,0,7.87,7.87,0,0,1,2.9,3.15,10.22,10.22,0,0,1,0,8.9A7.87,7.87,0,0,1,122,82a8.65,8.65,0,0,1-8.62,0Zm7.84-2a10.67,10.67,0,0,0,1.25-5.64,10.67,10.67,0,0,0-1.25-5.64,4.12,4.12,0,0,0-7,0A10.78,10.78,0,0,0,113,74.37,10.78,10.78,0,0,0,114.18,80a4.11,4.11,0,0,0,7,0Z"/><path class="cls-1" d="M132.65,82.47a2.78,2.78,0,0,1-1.1-1h-.13l-.87,1.12h-2.13V69.37a4,4,0,0,0-.34-1.89,1.48,1.48,0,0,0-1.41-.61h-.25v-.75h3a2.62,2.62,0,0,1,1.38.3,1.62,1.62,0,0,1,.67,1,7.12,7.12,0,0,1,.2,2v2a5.3,5.3,0,0,1,6.62,1,7.8,7.8,0,0,1,0,8.83,4.68,4.68,0,0,1-3.89,1.71A3.67,3.67,0,0,1,132.65,82.47Zm3.07-2.07a9.38,9.38,0,0,0,.58-3.65c0-3.34-.83-5-2.5-5a3.73,3.73,0,0,0-2.13.75v7.62a3.06,3.06,0,0,0,.91,1.15,2.06,2.06,0,0,0,1.34.48A1.89,1.89,0,0,0,135.72,80.4Z"/><path class="cls-1" d="M142.39,81.85a1.71,1.71,0,0,1-.5-1.07,13.49,13.49,0,0,1-.1-1.91h.87a3.71,3.71,0,0,0,1,2.09,3,3,0,0,0,2.22.79c1.67,0,2.5-.57,2.5-1.7a1.33,1.33,0,0,0-.53-1.08,8.59,8.59,0,0,0-1.72-1l-1.3-.55a7.76,7.76,0,0,1-2.4-1.52A2.93,2.93,0,0,1,143,71.5a6.08,6.08,0,0,1,3.44-.88c2,0,3.29.34,4,1a1.79,1.79,0,0,1,.5,1,15.15,15.15,0,0,1,.1,1.92h-.88a3.76,3.76,0,0,0-1-2.09,3.08,3.08,0,0,0-2.23-.78,2.37,2.37,0,0,0-1.6.46,1.57,1.57,0,0,0-.52,1.24,1.35,1.35,0,0,0,.43,1,4.94,4.94,0,0,0,1.34.82l1.5.62a8.83,8.83,0,0,1,2.66,1.56,2.92,2.92,0,0,1-.59,4.53,7.14,7.14,0,0,1-3.72.86Q143.49,82.87,142.39,81.85Z"/><path class="cls-1" d="M156.07,82.07a5.41,5.41,0,0,1-2-2.19,6.8,6.8,0,0,1-.71-3.13,7.25,7.25,0,0,1,.71-3.33,5,5,0,0,1,2-2.09,5.69,5.69,0,0,1,2.83-.71,6.13,6.13,0,0,1,2.8.63,4.89,4.89,0,0,1,2,1.76,4.78,4.78,0,0,1,.72,2.61l-.1,1.58h-7.53a6.43,6.43,0,0,0,.73,3.46,2.31,2.31,0,0,0,2,1.09,3.58,3.58,0,0,0,2-.54A6.46,6.46,0,0,0,163,79.67l.78.58A6.62,6.62,0,0,1,162,82.12a5,5,0,0,1-2.91.75A5.65,5.65,0,0,1,156.07,82.07Zm4.89-6a7.46,7.46,0,0,0-.54-3.34,1.72,1.72,0,0,0-3.12,0,6.94,6.94,0,0,0-.59,3.31Z"/><path class="cls-1" d="M175.21,71.83a4.11,4.11,0,0,1,.2.42l-1.28,1a2.38,2.38,0,0,0-.72-.69,1.84,1.84,0,0,0-1-.28,3,3,0,0,0-2.23.77,9.77,9.77,0,0,1,.1,1.2v8.4H167v-8.5a4,4,0,0,0-.34-1.89,1.42,1.42,0,0,0-1.38-.61h-.25v-.75h2.47a3.48,3.48,0,0,1,1.34.21,1.56,1.56,0,0,1,.76.72,4.62,4.62,0,0,1,3.15-1.18,3,3,0,0,1,1.78.5A2.15,2.15,0,0,1,175.21,71.83Z"/><path class="cls-1" d="M178.29,73.75a9.9,9.9,0,0,0-1.15-2,1.59,1.59,0,0,0-1.08-.61v-.5l.93,0a5.62,5.62,0,0,1,2.81.65,5.3,5.3,0,0,1,2,2.48l2.2,4.8,3.4-7.68h1.35l-5.33,12h-.9Z"/><path class="cls-1" d="M190.47,82a3,3,0,0,1-1.11-2.46,3.5,3.5,0,0,1,.59-2.08A3.66,3.66,0,0,1,192,76.17a15.7,15.7,0,0,1,4.1-.42h.38a5.9,5.9,0,0,0-.6-3.09,2,2,0,0,0-1.78-.91,2.55,2.55,0,0,0-1.6.47,2.9,2.9,0,0,0-.9,1.78h-1.37a7.57,7.57,0,0,1,.11-1.45,2.07,2.07,0,0,1,.51-1c.52-.59,1.77-.88,3.75-.88a5.16,5.16,0,0,1,3.81,1.31,5.34,5.34,0,0,1,1.32,3.94v6.75h-2.13l-.87-1.12h-.13a3,3,0,0,1-1.16,1,4,4,0,0,1-1.84.4A4.83,4.83,0,0,1,190.47,82Zm5.2-.84a3,3,0,0,0,.82-1.12V76.87h-.38a4.09,4.09,0,0,0-2.57.64,2.37,2.37,0,0,0-.8,2,2.55,2.55,0,0,0,.42,1.57,1.42,1.42,0,0,0,1.2.55A1.91,1.91,0,0,0,195.67,81.12Z"/><path class="cls-1" d="M203.84,81.93a3.61,3.61,0,0,1-1-2.71V72h-1.5V70.87h1.5V68.62l1.25-1.5h2v3.75h2.75V72h-2.75v7.37a3.71,3.71,0,0,0,.32,1.86,1.09,1.09,0,0,0,1,.52,3.36,3.36,0,0,0,2-.68l.35.7a4.76,4.76,0,0,1-3.25,1.1A3.61,3.61,0,0,1,203.84,81.93Z"/><path class="cls-1" d="M213.16,82.06a5.46,5.46,0,0,1-2.09-2.2,7,7,0,0,1,0-6.23,5.46,5.46,0,0,1,2.09-2.2,6.67,6.67,0,0,1,6.37,0,5.53,5.53,0,0,1,2.09,2.2,7.1,7.1,0,0,1,0,6.23,5.53,5.53,0,0,1-2.09,2.2,6.67,6.67,0,0,1-6.37,0Zm5.13-1.69a10,10,0,0,0,0-7.25,2.07,2.07,0,0,0-3.9,0,10.14,10.14,0,0,0,0,7.25,2.07,2.07,0,0,0,3.9,0Z"/><path class="cls-1" d="M233.26,71.83a4.11,4.11,0,0,1,.2.42l-1.27,1a2.54,2.54,0,0,0-.73-.69,1.82,1.82,0,0,0-1-.28,3,3,0,0,0-2.22.77c.06.53.1.93.1,1.2v8.4h-3.25v-8.5a4.13,4.13,0,0,0-.34-1.89,1.45,1.45,0,0,0-1.39-.61h-.25v-.75h2.48a3.42,3.42,0,0,1,1.33.21,1.58,1.58,0,0,1,.77.72,4.62,4.62,0,0,1,3.15-1.18,3,3,0,0,1,1.77.5A2,2,0,0,1,233.26,71.83Z"/><path class="cls-1" d="M236.77,86.75a4.14,4.14,0,0,0,2.22-.53,3.64,3.64,0,0,0,1.38-1.9l.52-1.35-4.5-9.85a3,3,0,0,0-2.32-2v-.5h2.2a3.57,3.57,0,0,1,1.95.54,3.47,3.47,0,0,1,1.3,1.46l2.87,6.3,3.05-8h1.33l-5.05,13.38a5.81,5.81,0,0,1-1.63,2.66,3.71,3.71,0,0,1-2.32.71h-1Z"/><path class="cls-1" d="M255.49,72H254V70.87h1.5V70.2A4.13,4.13,0,0,1,256.71,67a5.29,5.29,0,0,1,3.66-1.1,8.36,8.36,0,0,1,1.34.11,2.49,2.49,0,0,1,.93.32,2.32,2.32,0,0,1,1,1.07l-1,.88a2.76,2.76,0,0,0-.93-.93,2.25,2.25,0,0,0-1.2-.32,1.43,1.43,0,0,0-1.31.72,5.11,5.11,0,0,0-.44,2.48v.67H262V72h-3.25V82.62h-3.25Z"/><path class="cls-1" d="M265.49,82.06a5.46,5.46,0,0,1-2.09-2.2,7,7,0,0,1,0-6.23,5.46,5.46,0,0,1,2.09-2.2,6.67,6.67,0,0,1,6.37,0,5.53,5.53,0,0,1,2.09,2.2,7.1,7.1,0,0,1,0,6.23,5.53,5.53,0,0,1-2.09,2.2,6.67,6.67,0,0,1-6.37,0Zm5.13-1.69a10,10,0,0,0,0-7.25,2.07,2.07,0,0,0-3.9,0,10.14,10.14,0,0,0,0,7.25,2.07,2.07,0,0,0,3.9,0Z"/><path class="cls-1" d="M285.59,71.83a4.11,4.11,0,0,1,.2.42l-1.28,1a2.38,2.38,0,0,0-.72-.69,1.82,1.82,0,0,0-1-.28,3,3,0,0,0-2.22.77c.06.53.1.93.1,1.2v8.4h-3.25v-8.5a4.13,4.13,0,0,0-.34-1.89,1.45,1.45,0,0,0-1.39-.61h-.25v-.75h2.48a3.42,3.42,0,0,1,1.33.21,1.52,1.52,0,0,1,.76.72,4.65,4.65,0,0,1,3.16-1.18,3,3,0,0,1,1.77.5A2,2,0,0,1,285.59,71.83Z"/><path class="cls-1" d="M111.65,93.37a4,4,0,0,0-.35-1.89,1.47,1.47,0,0,0-1.4-.61h-.25v-.75h10.47c1.42,0,2.13.67,2.13,2v2.13h-.75a3,3,0,0,0-.79-2.29,3.38,3.38,0,0,0-2.34-.71H114.9v6.37h5.5v1.13h-5.5v7.87h-3.25Z"/><path class="cls-1" d="M132.75,95.83a4.11,4.11,0,0,1,.2.42l-1.28,1a2.38,2.38,0,0,0-.72-.69,1.84,1.84,0,0,0-1-.28,3,3,0,0,0-2.23.77,9.77,9.77,0,0,1,.1,1.2v8.4h-3.25v-8.5a4,4,0,0,0-.34-1.89,1.43,1.43,0,0,0-1.38-.61h-.25v-.75h2.47a3.48,3.48,0,0,1,1.34.21,1.56,1.56,0,0,1,.76.72,4.62,4.62,0,0,1,3.15-1.18,3,3,0,0,1,1.78.5A2.15,2.15,0,0,1,132.75,95.83Z"/><path class="cls-1" d="M135.74,106.07a5.45,5.45,0,0,1-2-2.19,6.68,6.68,0,0,1-.71-3.13,7.12,7.12,0,0,1,.71-3.33,5,5,0,0,1,2-2.09,5.69,5.69,0,0,1,2.83-.71,6.16,6.16,0,0,1,2.8.63,4.8,4.8,0,0,1,2,1.76,4.71,4.71,0,0,1,.73,2.61l-.1,1.58h-7.53a6.34,6.34,0,0,0,.73,3.46,2.31,2.31,0,0,0,2,1.09,3.6,3.6,0,0,0,2-.54,6.46,6.46,0,0,0,1.56-1.54l.77.58a6.45,6.45,0,0,1-1.81,1.87,5,5,0,0,1-2.91.75A5.71,5.71,0,0,1,135.74,106.07Zm4.9-6a7.29,7.29,0,0,0-.55-3.34,1.7,1.7,0,0,0-1.57-1,1.73,1.73,0,0,0-1.54,1,6.94,6.94,0,0,0-.59,3.31Z"/><path class="cls-1" d="M147.78,106.07a5.45,5.45,0,0,1-2-2.19,6.68,6.68,0,0,1-.71-3.13,7.12,7.12,0,0,1,.71-3.33,5,5,0,0,1,2-2.09,5.69,5.69,0,0,1,2.83-.71,6.16,6.16,0,0,1,2.8.63,4.8,4.8,0,0,1,2,1.76,4.71,4.71,0,0,1,.73,2.61l-.1,1.58h-7.53a6.34,6.34,0,0,0,.73,3.46,2.31,2.31,0,0,0,2,1.09,3.6,3.6,0,0,0,2-.54,6.46,6.46,0,0,0,1.56-1.54l.77.58a6.45,6.45,0,0,1-1.81,1.87,5,5,0,0,1-2.91.75A5.71,5.71,0,0,1,147.78,106.07Zm4.9-6a7.29,7.29,0,0,0-.55-3.34,1.7,1.7,0,0,0-1.57-1,1.73,1.73,0,0,0-1.54,1,6.94,6.94,0,0,0-.59,3.31Z"/><path class="cls-1" d="M158.52,105.16a7.75,7.75,0,0,1,0-8.83,5.29,5.29,0,0,1,6.61-1v-2a3.87,3.87,0,0,0-.35-1.89,1.46,1.46,0,0,0-1.4-.61h-.25v-.75h3a2.62,2.62,0,0,1,1.38.3,1.62,1.62,0,0,1,.67,1,7.12,7.12,0,0,1,.2,2v13.25h-2.12l-.88-1.12h-.12a2.82,2.82,0,0,1-1.11,1,3.73,3.73,0,0,1-1.77.4A4.66,4.66,0,0,1,158.52,105.16Zm5.75.09a3.93,3.93,0,0,0,.88-1.13V96.5a3.54,3.54,0,0,0-2.12-.75c-1.67,0-2.5,1.66-2.5,5a9.76,9.76,0,0,0,.56,3.66,1.9,1.9,0,0,0,1.81,1.34A2,2,0,0,0,164.27,105.25Z"/><path class="cls-1" d="M173,106.06a5.5,5.5,0,0,1-2.08-2.2,7,7,0,0,1,0-6.23,5.5,5.5,0,0,1,2.08-2.2,6.69,6.69,0,0,1,6.38,0,5.53,5.53,0,0,1,2.09,2.2,7.1,7.1,0,0,1,0,6.23,5.53,5.53,0,0,1-2.09,2.2,6.69,6.69,0,0,1-6.38,0Zm5.14-1.69a10,10,0,0,0,0-7.25,2.07,2.07,0,0,0-3.9,0,10.14,10.14,0,0,0,0,7.25,2.07,2.07,0,0,0,3.9,0Z"/><path class="cls-1" d="M184.15,98.12a4.15,4.15,0,0,0-.33-1.89,1.45,1.45,0,0,0-1.39-.61h-.25v-.75h2.47a2.18,2.18,0,0,1,2.13.95h.1a4.91,4.91,0,0,1,5.29-.74,3.9,3.9,0,0,1,1.31,1,4.46,4.46,0,0,1,1.42-1,5,5,0,0,1,2.13-.39c2.92,0,4.37,1.53,4.37,4.6v7.4h-3.25V99.2a4.52,4.52,0,0,0-.55-2.53,1.68,1.68,0,0,0-1.45-.8,3.07,3.07,0,0,0-1.25.26,2.45,2.45,0,0,0-.9.69,5.5,5.5,0,0,1,.4,2.4v7.4h-3.25V99.2a4.52,4.52,0,0,0-.55-2.53,1.68,1.68,0,0,0-1.45-.8,2,2,0,0,0-.92.24,3.55,3.55,0,0,0-.83.56v10h-3.25Z"/><path class="cls-1" d="M211.52,106.06a5.46,5.46,0,0,1-2.09-2.2,7,7,0,0,1,0-6.23,5.46,5.46,0,0,1,2.09-2.2,6.67,6.67,0,0,1,6.37,0,5.46,5.46,0,0,1,2.09,2.2,7.1,7.1,0,0,1,0,6.23,5.46,5.46,0,0,1-2.09,2.2,6.67,6.67,0,0,1-6.37,0Zm5.13-1.69a10,10,0,0,0,0-7.25,2.07,2.07,0,0,0-3.9,0,10.14,10.14,0,0,0,0,7.25,2.07,2.07,0,0,0,3.9,0Z"/><path class="cls-1" d="M222.59,96h-1.5V94.87h1.5V94.2A4.13,4.13,0,0,1,223.8,91a5.32,5.32,0,0,1,3.66-1.1,8.17,8.17,0,0,1,1.34.11,2.48,2.48,0,0,1,.94.32,2.3,2.3,0,0,1,1,1.07l-1,.88a2.82,2.82,0,0,0-.92-.93,2.3,2.3,0,0,0-1.2-.32,1.42,1.42,0,0,0-1.31.72,5,5,0,0,0-.44,2.48v.67h3.25V96h-3.25v10.62h-3.25Z"/><path class="cls-1" d="M236.71,93.37a3.87,3.87,0,0,0-.35-1.89,1.46,1.46,0,0,0-1.4-.61h-.25v-.75h11c1.41,0,2.12.67,2.12,2v2.13h-.75a3,3,0,0,0-.78-2.28,3.38,3.38,0,0,0-2.34-.72h-4V97.5h6.5v1.12H240v6.88h4.28a4.19,4.19,0,0,0,2.37-.64,4.61,4.61,0,0,0,1.58-2.21l.67.25-.72,2a3.51,3.51,0,0,1-.78,1.33,2,2,0,0,1-1.4.42h-9.25Z"/><path class="cls-1" d="M253.31,101.4l-2.4-4A5.62,5.62,0,0,0,249.79,96a2.54,2.54,0,0,0-1.2-.61v-.5H251a3.28,3.28,0,0,1,1.88.5,4.7,4.7,0,0,1,1.32,1.5l1.2,2,3.28-4h1.67l-4.22,5.2,2.42,4.05a5.64,5.64,0,0,0,1.13,1.39,2.54,2.54,0,0,0,1.2.61v.5h-2.38a3.25,3.25,0,0,1-1.87-.5,4.6,4.6,0,0,1-1.33-1.5l-1.22-2-3.28,4h-1.67Z"/><path class="cls-1" d="M262.79,98.12a4,4,0,0,0-.34-1.89,1.43,1.43,0,0,0-1.38-.61h-.25v-.75h2.47a3.08,3.08,0,0,1,1.35.24,1.65,1.65,0,0,1,.75.81,5,5,0,0,1,3.4-1.3,4.69,4.69,0,0,1,3.89,1.71,6.88,6.88,0,0,1,1.36,4.42,6.75,6.75,0,0,1-1.39,4.41,4.82,4.82,0,0,1-4,1.71,5,5,0,0,1-1.5-.22,3.73,3.73,0,0,1-1.13-.53v5.25h-3.25Zm7.88,2.63a9.53,9.53,0,0,0-.58-3.65,1.89,1.89,0,0,0-1.8-1.35,3.24,3.24,0,0,0-2.25.85V105a2.93,2.93,0,0,0,.92.52,3.46,3.46,0,0,0,1.21.23C269.83,105.75,270.67,104.08,270.67,100.75Z"/><path class="cls-1" d="M284.3,95.83a4.11,4.11,0,0,1,.2.42l-1.28,1a2.38,2.38,0,0,0-.72-.69,1.82,1.82,0,0,0-1-.28,3,3,0,0,0-2.22.77c.06.53.1.93.1,1.2v8.4h-3.25v-8.5a4.13,4.13,0,0,0-.34-1.89,1.45,1.45,0,0,0-1.39-.61h-.25v-.75h2.48a3.42,3.42,0,0,1,1.33.21,1.52,1.52,0,0,1,.76.72,4.65,4.65,0,0,1,3.16-1.18,3,3,0,0,1,1.77.5A2,2,0,0,1,284.3,95.83Z"/><path class="cls-1" d="M287.3,106.07a5.32,5.32,0,0,1-2-2.19,6.68,6.68,0,0,1-.72-3.13,7.12,7.12,0,0,1,.72-3.33,4.9,4.9,0,0,1,2-2.09,5.62,5.62,0,0,1,2.82-.71,6.1,6.1,0,0,1,2.8.63,4.72,4.72,0,0,1,2.7,4.37l-.1,1.58H288a6.44,6.44,0,0,0,.72,3.46,2.33,2.33,0,0,0,2,1.09,3.55,3.55,0,0,0,2-.54,6.46,6.46,0,0,0,1.56-1.54l.78.58a6.72,6.72,0,0,1-1.81,1.87,5.08,5.08,0,0,1-2.92.75A5.65,5.65,0,0,1,287.3,106.07Zm4.9-6a7.43,7.43,0,0,0-.55-3.34,1.71,1.71,0,0,0-3.11,0,6.82,6.82,0,0,0-.59,3.31Z"/><path class="cls-1" d="M297.42,105.85a1.76,1.76,0,0,1-.5-1.07,13.49,13.49,0,0,1-.1-1.91h.87a3.77,3.77,0,0,0,1,2.09,3.06,3.06,0,0,0,2.22.79c1.67,0,2.5-.57,2.5-1.7a1.3,1.3,0,0,0-.53-1.08,8.59,8.59,0,0,0-1.72-1l-1.3-.55A7.58,7.58,0,0,1,297.5,100,2.91,2.91,0,0,1,298,95.5a6,6,0,0,1,3.43-.88c1.95,0,3.3.34,4,1a1.74,1.74,0,0,1,.5,1,13.46,13.46,0,0,1,.1,1.92h-.88a3.76,3.76,0,0,0-1-2.09,3.06,3.06,0,0,0-2.23-.78,2.37,2.37,0,0,0-1.6.46,1.6,1.6,0,0,0-.52,1.24,1.36,1.36,0,0,0,.44,1,4.86,4.86,0,0,0,1.33.82l1.5.62a8.9,8.9,0,0,1,2.67,1.56,2.77,2.77,0,0,1,.81,2.07,2.74,2.74,0,0,1-1.41,2.46,7.11,7.11,0,0,1-3.72.86C299.5,106.87,298.15,106.53,297.42,105.85Z"/><path class="cls-1" d="M308.54,105.85a1.71,1.71,0,0,1-.5-1.07,13.49,13.49,0,0,1-.1-1.91h.87a3.71,3.71,0,0,0,1,2.09,3,3,0,0,0,2.22.79c1.67,0,2.5-.57,2.5-1.7A1.31,1.31,0,0,0,314,103a8.46,8.46,0,0,0-1.71-1l-1.3-.55a7.76,7.76,0,0,1-2.4-1.52,2.93,2.93,0,0,1,.51-4.45,6.08,6.08,0,0,1,3.44-.88c1.95,0,3.29.34,4,1a1.79,1.79,0,0,1,.5,1,15.15,15.15,0,0,1,.1,1.92h-.88a3.76,3.76,0,0,0-1-2.09,3.08,3.08,0,0,0-2.23-.78,2.35,2.35,0,0,0-1.6.46,1.57,1.57,0,0,0-.52,1.24,1.35,1.35,0,0,0,.43,1,4.94,4.94,0,0,0,1.34.82l1.5.62a8.83,8.83,0,0,1,2.66,1.56,2.92,2.92,0,0,1-.6,4.53,7.1,7.1,0,0,1-3.71.86Q309.64,106.87,308.54,105.85Z"/><path class="cls-1" d="M319.81,98.12a3.87,3.87,0,0,0-.35-1.89,1.46,1.46,0,0,0-1.4-.61h-.25v-.75h3a2.62,2.62,0,0,1,1.38.3,1.66,1.66,0,0,1,.67,1,7.12,7.12,0,0,1,.2,2v8.5h-3.25Zm.24-5.15a2,2,0,0,1-.49-1.35,1.35,1.35,0,0,1,.39-1,1.37,1.37,0,0,1,1-.38,1.76,1.76,0,0,1,1.39.55,2,2,0,0,1,.48,1.35,1.41,1.41,0,0,1-.38,1,1.37,1.37,0,0,1-1,.37A1.76,1.76,0,0,1,320.05,93Z"/><path class="cls-1" d="M327.56,106.06a5.46,5.46,0,0,1-2.09-2.2,7,7,0,0,1,0-6.23,5.46,5.46,0,0,1,2.09-2.2,6.67,6.67,0,0,1,6.37,0,5.46,5.46,0,0,1,2.09,2.2,7.1,7.1,0,0,1,0,6.23,5.46,5.46,0,0,1-2.09,2.2,6.67,6.67,0,0,1-6.37,0Zm5.13-1.69a10,10,0,0,0,0-7.25,2.07,2.07,0,0,0-3.9,0,10.14,10.14,0,0,0,0,7.25,2.07,2.07,0,0,0,3.9,0Z"/><path class="cls-1" d="M338.74,98.12a4.13,4.13,0,0,0-.34-1.89,1.45,1.45,0,0,0-1.39-.61h-.25v-.75h2.48a3.42,3.42,0,0,1,1.33.21,1.58,1.58,0,0,1,.77.72A5.15,5.15,0,0,1,345,94.62a5,5,0,0,1,3.56,1.11,4.59,4.59,0,0,1,1.19,3.49v7.4h-3.25V99.2a4.09,4.09,0,0,0-.64-2.53,2.13,2.13,0,0,0-1.74-.8,3.32,3.32,0,0,0-2.12.63v10.12h-3.25Z"/></svg>