<svg id="Layer_1" data-name="Layer 1" xmlns="http://www.w3.org/2000/svg" viewBox="0 0 370.08 88.62"><defs><style>.cls-1{fill:#3d3356;}.cls-2{fill:#f89d61;}.cls-3{fill:#ffdb8a;}.cls-4{fill:#ba365d;}.cls-5{fill:#fff;}.cls-6{fill:none;}</style></defs><title>Prefinal Horizontal</title><path class="cls-1" d="M321,32.81h-8.64a68.7,68.7,0,0,0-8.5,10.42H304a7.05,7.05,0,0,1,7.05,7.05V82.77h17V39.85a7,7,0,0,0-7-7"/><path class="cls-2" d="M337.21,16.92a67.74,67.74,0,0,0-24.88,15.89H321a7,7,0,0,1,7,7V82.77h35a7,7,0,0,0,6.1-10.56Z"/><path class="cls-3" d="M294.35,43.23H278.56a7,7,0,0,0-7,7.05V82.77l22.83-39.54"/><path class="cls-4" d="M329.47,3.52a7,7,0,0,0-12.2,0L294.35,43.23h9.48a68.7,68.7,0,0,1,8.5-10.42,67.74,67.74,0,0,1,24.88-15.89Z"/><path class="cls-2" d="M291.18,63a27.12,27.12,0,0,1,8.54-19.77h-5.38L271.52,82.77h28.2A27.12,27.12,0,0,1,291.18,63Z"/><path class="cls-5" d="M304,43.23h-4.29a27.15,27.15,0,0,0,0,39.54h11.34V50.28A7.05,7.05,0,0,0,304,43.23Z"/><path class="cls-6" d="M239.28,10.44a.69.69,0,0,0,.53-.23.78.78,0,0,0,.2-.5.69.69,0,0,0-.73-.73.78.78,0,0,0-.5.2.69.69,0,0,0-.23.53.79.79,0,0,0,.73.73Z"/><path class="cls-6" d="M243.08,47.55a21.63,21.63,0,0,0,.83-6.24,14.48,14.48,0,0,0-1.16-6.55,4.27,4.27,0,0,0-4.13-2.18,6,6,0,0,0-3.34.93,3.28,3.28,0,0,0-1.42,3V50.3h6C241.46,50.3,242.53,49.38,243.08,47.55Z"/><path class="cls-4" d="M31.79,13.68a5.09,5.09,0,0,0-2.9.79,5.32,5.32,0,0,0-1.76,1.82A3.86,3.86,0,0,0,26.57,18c.09,0,.35.16.8.33a4,4,0,0,1,1.45,1.32,6.4,6.4,0,0,1,.79,3.7V56.18a10.81,10.81,0,0,1-2.28,6.87Q25,66,19.76,66a11.27,11.27,0,0,1-8.06-2.87q-3-2.88-3-8.23a16.14,16.14,0,0,1,1.42-7,10.7,10.7,0,0,1,3.21-4.26A6.21,6.21,0,0,0,11.2,42.4a8.32,8.32,0,0,0-3.14-.56,6.39,6.39,0,0,0-6.24,3.7A19.65,19.65,0,0,0,0,54.33q0,8.93,5.09,13.75T19.83,72.9q18.38,0,18.38-17.84V21.61a8.93,8.93,0,0,0-1.76-5.72A5.64,5.64,0,0,0,31.79,13.68Z"/><path class="cls-4" d="M233.59,18a12.69,12.69,0,0,0,3.74-.89A14.53,14.53,0,0,0,242,14.41,5.63,5.63,0,0,0,244,10a4.94,4.94,0,0,0-1.39-3.61A4.57,4.57,0,0,0,239.28,5a4.46,4.46,0,0,0-3.34,1.42,4.8,4.8,0,0,0-1.36,3.41,4.63,4.63,0,0,0,.5,2.15,3.85,3.85,0,0,0,1.16,1.42l-2.78.59q-1.92.41-1.92,1.92a2,2,0,0,0,.63,1.55A2.06,2.06,0,0,0,233.59,18Zm5.19-8.79a.78.78,0,0,1,.5-.2.69.69,0,0,1,.73.73.78.78,0,0,1-.2.5.69.69,0,0,1-.53.23.79.79,0,0,1-.73-.73A.69.69,0,0,1,238.78,9.18Z"/><path class="cls-4" d="M233.86,56A12.33,12.33,0,0,0,240,57.44q12.48,0,12.49-15.74,0-6.8-2.18-10.37A10.29,10.29,0,0,0,245,26.67a22,22,0,0,0-7.24-1.09,17.13,17.13,0,0,0-7.24,1.25,8.15,8.15,0,0,0-3.93,4.83q-1.32,3.57-1.32,10.37V50.3h-8.46a17.54,17.54,0,0,0,1.48-4.6,24.8,24.8,0,0,0,.43-4.39,14.63,14.63,0,0,0-2.41-8.4,16.38,16.38,0,0,0-6-5.45,15.22,15.22,0,0,0-7.11-1.88l-3.11.06-4.56.13a12.86,12.86,0,0,1-5-.82,4.42,4.42,0,0,1-2.38-1.82,1.28,1.28,0,0,0-1.16.56,3,3,0,0,0-.49,1.89,7.49,7.49,0,0,0,1.62,4.85,5.68,5.68,0,0,0,4.72,2h6.48a14.21,14.21,0,0,1,7.63,2c2.14,1.33,3.21,3.68,3.21,7.08a12.5,12.5,0,0,1-.76,4.46,9.15,9.15,0,0,1-1.88,3.17,3.14,3.14,0,0,1-2.12,1.16H60.28a2.39,2.39,0,0,1-2.11-1.06,5.56,5.56,0,0,1-.73-3.17V21.61a8.93,8.93,0,0,0-1.75-5.68,5.55,5.55,0,0,0-4.6-2.25,5.15,5.15,0,0,0-4.72,2.64A3.89,3.89,0,0,0,45.81,18c.08,0,.35.16.79.33a3.92,3.92,0,0,1,1.45,1.32,6.39,6.39,0,0,1,.8,3.7V46.73a12.9,12.9,0,0,0,2.24,7.57,7.37,7.37,0,0,0,6.35,3H206a11.49,11.49,0,0,0,7-2.18,10.9,10.9,0,0,0,6.87,2.18h8.33a12.86,12.86,0,0,0,3.14-.39A10,10,0,0,0,233.86,56Zm0-19.5a3.28,3.28,0,0,1,1.42-3,6,6,0,0,1,3.34-.93,4.27,4.27,0,0,1,4.13,2.18,14.48,14.48,0,0,1,1.16,6.55,21.63,21.63,0,0,1-.83,6.24c-.55,1.83-1.62,2.75-3.2,2.75h-6Z"/><path class="cls-1" d="M55.32,82.77H52.87V84a5.69,5.69,0,0,1-1,3.16c-.64,1-1.83,1.46-3.57,1.46a3.78,3.78,0,0,1-2.77-.88,2.82,2.82,0,0,1-.88-2.08c0-.22,0-.38,0-.49a4.34,4.34,0,0,0,1.26.69,4.17,4.17,0,0,0,1.56.31,2.6,2.6,0,0,0,1.41-.37,1.29,1.29,0,0,0,.6-1.19V72.09A1.5,1.5,0,0,1,50,70.94a1.66,1.66,0,0,1,1.2-.44,1.69,1.69,0,0,1,1.2.44,1.6,1.6,0,0,1,.46,1.2v7.92h2.45Z"/><path class="cls-1" d="M64.63,80.06v2.71H61a4.07,4.07,0,0,1-2.5-.89,5.71,5.71,0,0,1-1.08.67,2.89,2.89,0,0,1-1.22.22h-.85V80.06h.85a3.35,3.35,0,0,0,1.15-.18,3.49,3.49,0,0,0,1-.59v-7.1a1.82,1.82,0,0,1,.4-1.19,1.84,1.84,0,0,1,2.53,0,2,2,0,0,1,.39,1.23v6.19a2.13,2.13,0,0,0,.29,1.22.9.9,0,0,0,.81.41Zm-7.89,7.72a1.57,1.57,0,0,1-.5-1.17,1.59,1.59,0,0,1,.5-1.18,1.65,1.65,0,0,1,2.82,1.18,1.59,1.59,0,0,1-.48,1.17,1.64,1.64,0,0,1-2.34,0Zm4.14,0a1.57,1.57,0,0,1-.5-1.17,1.59,1.59,0,0,1,.5-1.18A1.63,1.63,0,0,1,62,84.94a1.6,1.6,0,0,1,1.19.49,1.61,1.61,0,0,1,.48,1.18A1.66,1.66,0,0,1,62,88.27,1.63,1.63,0,0,1,60.88,87.78Z"/><path class="cls-1" d="M64.63,80.06h3.91v2.71H64.63Z"/><path class="cls-1" d="M68.54,80.06h3.91v2.71H68.54Z"/><path class="cls-1" d="M81.75,80.06v2.71H78.1a4.12,4.12,0,0,1-2.51-.89,5.37,5.37,0,0,1-1.07.67,2.91,2.91,0,0,1-1.23.22h-.84V80.06h.84a3.31,3.31,0,0,0,1.15-.18,3.4,3.4,0,0,0,1-.59v-7.1A1.87,1.87,0,0,1,75.83,71a1.54,1.54,0,0,1,1.27-.5,1.52,1.52,0,0,1,1.27.51,2,2,0,0,1,.39,1.23v6.19A2.22,2.22,0,0,0,79,79.65a.92.92,0,0,0,.82.41Zm-6,7.89a1.81,1.81,0,0,1,0-2.6,1.9,1.9,0,0,1,1.35-.53,1.82,1.82,0,0,1,1.29.53,1.85,1.85,0,0,1-1.29,3.15A1.87,1.87,0,0,1,75.78,88Z"/><path class="cls-1" d="M96.27,80.06v2.71h-1a4.44,4.44,0,0,1-2.38-.64,4,4,0,0,1-2.3.64H81.75V80.06h5.47l-4.75-6.44a3.58,3.58,0,0,1,1-1.46,5.94,5.94,0,0,1,2-1.19,8.47,8.47,0,0,1,2.94-.47,8.92,8.92,0,0,1,3.72.73,5.92,5.92,0,0,1,2.52,2,5.19,5.19,0,0,1,.89,3,9.58,9.58,0,0,1-.19,1.79,7.92,7.92,0,0,1-.62,2Zm-4.45-1.78a5.42,5.42,0,0,0,.36-1.87,2.78,2.78,0,0,0-.51-1.65,3.41,3.41,0,0,0-1.37-1.14,4.28,4.28,0,0,0-1.85-.41,3.34,3.34,0,0,0-2.17.72l4.32,5.83A2.68,2.68,0,0,0,91.82,78.28Z"/><path class="cls-1" d="M105.58,80.06v2.71h-3.66a4.07,4.07,0,0,1-2.5-.89,5.42,5.42,0,0,1-1.08.67,2.89,2.89,0,0,1-1.22.22h-.85V80.06h.85a3.35,3.35,0,0,0,1.15-.18,3.49,3.49,0,0,0,1-.59v-7.1a1.82,1.82,0,0,1,.4-1.19,1.84,1.84,0,0,1,2.53,0,2,2,0,0,1,.39,1.23v6.19a2.13,2.13,0,0,0,.29,1.22.9.9,0,0,0,.81.41ZM97.69,68.23A1.66,1.66,0,0,1,100,65.87a1.69,1.69,0,0,1,0,2.36,1.67,1.67,0,0,1-2.34,0Zm4.14,0A1.66,1.66,0,0,1,103,65.39a1.59,1.59,0,0,1,1.19.48,1.69,1.69,0,0,1,0,2.36,1.59,1.59,0,0,1-1.19.48A1.62,1.62,0,0,1,101.83,68.23Z"/><path class="cls-1" d="M105.58,80.06h1.71a.93.93,0,0,0,.82-.42,2.3,2.3,0,0,0,.28-1.24V69.66a2.42,2.42,0,0,0-.31-1.43,1.33,1.33,0,0,0-.56-.51l-.31-.13a1.41,1.41,0,0,1,.22-.68,2,2,0,0,1,.68-.7,1.92,1.92,0,0,1,1.12-.31,2.18,2.18,0,0,1,1.8.86,3.39,3.39,0,0,1,.68,2.21v9.69a4.83,4.83,0,0,1-.86,2.94,2.86,2.86,0,0,1-2.46,1.17h-2.81Z"/><path class="cls-1" d="M116.22,82.26a2,2,0,0,1-.39-1.23V69.66a2.5,2.5,0,0,0-.31-1.43,1.39,1.39,0,0,0-.56-.51l-.31-.13a1.51,1.51,0,0,1,.22-.67,2,2,0,0,1,.67-.71,2,2,0,0,1,1.16-.31,2.13,2.13,0,0,1,1.77.87,3.48,3.48,0,0,1,.68,2.2V81.08a1.82,1.82,0,0,1-.4,1.19,1.48,1.48,0,0,1-1.26.5A1.52,1.52,0,0,1,116.22,82.26Z"/><path class="cls-1" d="M140.49,80.06v2.71h-2.63a5,5,0,0,1-1.21-.15,3.72,3.72,0,0,1-1-.36,4.73,4.73,0,0,1-2.38.56q-4.83,0-4.83-6.08a7.78,7.78,0,0,1,.84-4,4,4,0,0,1,2.06-1.81,8.54,8.54,0,0,1,2.8-.42A6.51,6.51,0,0,1,137,71a3.13,3.13,0,0,1,1.52,1.86,12.18,12.18,0,0,1,.51,4v3.19ZM130.43,68.23a1.67,1.67,0,0,1,0-2.36,1.64,1.64,0,0,1,1.17-.48,1.66,1.66,0,1,1,0,3.32A1.64,1.64,0,0,1,130.43,68.23ZM132.12,79a1.25,1.25,0,0,0,1.24,1.06h2.33V74.72a1.28,1.28,0,0,0-.55-1.15,2.32,2.32,0,0,0-1.29-.36,1.65,1.65,0,0,0-1.6.84,5.6,5.6,0,0,0-.45,2.54A8.47,8.47,0,0,0,132.12,79Zm2.46-10.77a1.64,1.64,0,0,1,0-2.36,1.68,1.68,0,0,1,2.35,0,1.72,1.72,0,0,1,0,2.36,1.68,1.68,0,0,1-2.35,0Z"/><path class="cls-1" d="M140.49,80.06h3.91v2.71h-3.91Z"/><path class="cls-1" d="M144.4,80.06h3.91v2.71H144.4Z"/><path class="cls-1" d="M148.31,80.06h2.36c.49,0,.91-.33,1.25-1a6.45,6.45,0,0,0,.51-2.88,8.47,8.47,0,0,0-.2-2,3,3,0,0,0-.57-1.17,6.73,6.73,0,0,0-1-.91,1.37,1.37,0,0,1,.23-.68,1.9,1.9,0,0,1,.71-.62,2.33,2.33,0,0,1,1.13-.26A2.46,2.46,0,0,1,155,71.83a7.31,7.31,0,0,1,.76,3.63,11.44,11.44,0,0,1-.55,3.62,6,6,0,0,1-1.68,2.68,4.08,4.08,0,0,1-2.8,1h-2.41Zm.08,7.72a1.57,1.57,0,0,1-.5-1.17,1.59,1.59,0,0,1,.5-1.18,1.66,1.66,0,0,1,2.83,1.18,1.6,1.6,0,0,1-.49,1.17,1.64,1.64,0,0,1-2.34,0Zm4.14,0a1.57,1.57,0,0,1-.5-1.17,1.59,1.59,0,0,1,.5-1.18,1.63,1.63,0,0,1,1.16-.49,1.6,1.6,0,0,1,1.19.49,1.61,1.61,0,0,1,.48,1.18,1.66,1.66,0,0,1-1.67,1.66A1.63,1.63,0,0,1,152.53,87.78Z"/><path class="cls-1" d="M166.9,82.77h-2.46V84a5.76,5.76,0,0,1-.95,3.16c-.64,1-1.83,1.46-3.57,1.46a3.76,3.76,0,0,1-2.77-.88,2.83,2.83,0,0,1-.89-2.08,2.93,2.93,0,0,1,0-.49,4.28,4.28,0,0,0,1.25.69,4.21,4.21,0,0,0,1.56.31,2.61,2.61,0,0,0,1.42-.37,1.29,1.29,0,0,0,.6-1.19V72.09a1.49,1.49,0,0,1,.46-1.15,1.69,1.69,0,0,1,1.2-.44,1.66,1.66,0,0,1,1.2.44,1.56,1.56,0,0,1,.46,1.2v7.92h2.46Z"/><path class="cls-1" d="M166.9,80.06h7.9a1.2,1.2,0,0,0,.81-.45,3.32,3.32,0,0,0,.73-1.22,4.8,4.8,0,0,0,.3-1.73,3,3,0,0,0-1.24-2.73,5.53,5.53,0,0,0-3-.77h-2.5a2.21,2.21,0,0,1-1.83-.78,2.9,2.9,0,0,1-.62-1.88,1.18,1.18,0,0,1,.19-.73.46.46,0,0,1,.44-.21,1.74,1.74,0,0,0,.92.7,5.09,5.09,0,0,0,2,.32l1.76,0,1.2,0a5.84,5.84,0,0,1,2.75.73A6.43,6.43,0,0,1,179,73.34a5.67,5.67,0,0,1,.93,3.25,9.64,9.64,0,0,1-.41,2.62A5.57,5.57,0,0,1,178,81.7a4.11,4.11,0,0,1-3,1.07H166.9Z"/><path class="cls-1" d="M202.1,80.09v2.68h-2.33a4.2,4.2,0,0,1-2.58-.77,4,4,0,0,1-2.51.77h-3.93a.86.86,0,0,1-.86-.43,2,2,0,0,1-.22-.92,2,2,0,0,1,.22-.92.86.86,0,0,1,.86-.44h1.58a4.05,4.05,0,0,0,3-.92,3.28,3.28,0,0,0,.91-2.43,4.53,4.53,0,0,0-.6-2.36,4,4,0,0,0-1.34-1.45.9.9,0,0,0-.83.46,2.68,2.68,0,0,0-.37,1.56,6.41,6.41,0,0,1-.8.25,3.63,3.63,0,0,1-.81.11,1.85,1.85,0,0,1-1.28-.48,1.82,1.82,0,0,1-.54-1.41,2.14,2.14,0,0,1,.78-1.74,4.62,4.62,0,0,1,1.77-.89,6.9,6.9,0,0,1,1.7-.26,5.33,5.33,0,0,1,2.42.7,6.44,6.44,0,0,1,2.28,2,5.34,5.34,0,0,1,.94,3.16,9.5,9.5,0,0,1-.19,1.79,7.35,7.35,0,0,1-.62,1.89Z"/><path class="cls-1" d="M202.1,80.06H206v2.71H202.1Z"/><path class="cls-1" d="M206,80.06h3.91v2.71H206Z"/><path class="cls-1" d="M224.3,71.09a5.79,5.79,0,0,1,2.62,2,6.08,6.08,0,0,1,1,3.68,8.22,8.22,0,0,1-1.08,4.08c-.73,1.29-2.11,1.93-4.16,1.93h-12.8V80.06h2.6V74.82a1.82,1.82,0,0,0-.34-1.14,1.45,1.45,0,0,0-.76-.55,2,2,0,0,1,.73-.94,2.49,2.49,0,0,1,1.5-.41,2,2,0,0,1,1.94,1.1,4.44,4.44,0,0,1,1.93-1.64A7.62,7.62,0,0,1,221,70.5,9.39,9.39,0,0,1,224.3,71.09Zm-.61,8.61a2.49,2.49,0,0,0,.68-1,4,4,0,0,0,.27-1.54,3.61,3.61,0,0,0-1.19-3,4.26,4.26,0,0,0-2.77-1,6.11,6.11,0,0,0-2.88.76,4.08,4.08,0,0,0-2,1.87v4.22h7A1.23,1.23,0,0,0,223.69,79.7Z"/><path class="cls-1" d="M239.11,82.77h-2.46V84a5.76,5.76,0,0,1-1,3.16c-.64,1-1.83,1.46-3.57,1.46a3.76,3.76,0,0,1-2.77-.88,2.83,2.83,0,0,1-.89-2.08,2.93,2.93,0,0,1,0-.49,4.28,4.28,0,0,0,1.25.69,4.21,4.21,0,0,0,1.56.31,2.61,2.61,0,0,0,1.42-.37,1.29,1.29,0,0,0,.6-1.19V72.09a1.49,1.49,0,0,1,.46-1.15,1.69,1.69,0,0,1,1.2-.44,1.66,1.66,0,0,1,1.2.44,1.56,1.56,0,0,1,.46,1.2v7.92h2.46Z"/><path class="cls-1" d="M248.22,70.92a4,4,0,0,1,2.06,1.81,7.78,7.78,0,0,1,.84,4q0,6.08-4.83,6.08a4.73,4.73,0,0,1-2.38-.56,3.64,3.64,0,0,1-.95.36,5.09,5.09,0,0,1-1.22.15h-2.63V80.06h1.48V76.87a12.18,12.18,0,0,1,.51-4A3.13,3.13,0,0,1,242.62,71a6.51,6.51,0,0,1,2.8-.49A8.54,8.54,0,0,1,248.22,70.92ZM247.48,79a8.47,8.47,0,0,0,.32-2.41,5.6,5.6,0,0,0-.45-2.54,1.65,1.65,0,0,0-1.6-.84,2.32,2.32,0,0,0-1.29.36,1.28,1.28,0,0,0-.55,1.15v5.34h2.33A1.25,1.25,0,0,0,247.48,79Z"/></svg>