<svg id="Layer_1" data-name="Layer 1" xmlns="http://www.w3.org/2000/svg" viewBox="0 0 425.2 170.08"><defs><style>.cls-1{fill:#3d3356;}.cls-2{fill:#f89d61;}.cls-3{fill:#ffdb8a;}.cls-4{fill:#ba365d;}.cls-5{fill:#fff;}.cls-6{fill:#b9365d;}</style></defs><title>Muhal Logo ArabicMuhal Logo English (Horizontal)</title><path class="cls-1" d="M80.53,62.64H71.89a67.52,67.52,0,0,0-8.5,10.42h.14a7,7,0,0,1,7,7V112.6h17V69.68a7,7,0,0,0-7-7"/><path class="cls-2" d="M96.74,46.75A67.48,67.48,0,0,0,71.86,62.64h8.67a7,7,0,0,1,7,7v43h35a7,7,0,0,0,6.1-10.56Z"/><path class="cls-3" d="M53.88,73.06H38.09a7,7,0,0,0-7,7V112.6L53.92,73.06"/><path class="cls-4" d="M89,33.35a7,7,0,0,0-12.2,0L53.88,73.06h9.48A67.93,67.93,0,0,1,96.74,46.75Z"/><path class="cls-2" d="M50.71,92.83a27.05,27.05,0,0,1,8.54-19.77H53.87L31.05,112.6h28.2A27.08,27.08,0,0,1,50.71,92.83Z"/><path class="cls-5" d="M63.53,73.06H59.24a27.15,27.15,0,0,0-1.17,38.37q.57.6,1.17,1.17H70.58V80.11A7,7,0,0,0,63.53,73.06Z"/><path class="cls-6" d="M190.2,86.9q-3.18-3.37-3.18-11V52.16L172.35,87.27h-2.21l-18-36.45V87.27h-3.35V43.05H157L173.22,76,187,43.05h8.77V75.88q0,6.3,1.07,9.25a5,5,0,0,0,3.82,3.48v1.68Q193.39,90.29,190.2,86.9Z"/><path class="cls-6" d="M209.61,85q-3-2.94-3-9.38V64.49a10.49,10.49,0,0,0-.94-5.06c-.62-1.09-1.87-1.64-3.75-1.64h-.67v-2h8a6.92,6.92,0,0,1,3.69.81,4.4,4.4,0,0,1,1.81,2.64,20.21,20.21,0,0,1,.53,5.26V75.68q0,5,1.41,7.14A4.82,4.82,0,0,0,221,84.93a5.32,5.32,0,0,0,3.65-1.34,10.66,10.66,0,0,0,2.38-3V55.78h8.71V87.27H230l-2.34-3h-.34A11,11,0,0,1,219,87.94Q212.62,87.94,209.61,85Z"/><path class="cls-6" d="M244.32,51.76a10.49,10.49,0,0,0-.94-5.06c-.63-1.09-1.88-1.64-3.75-1.64H239v-2h8a6.88,6.88,0,0,1,3.68.81,4.4,4.4,0,0,1,1.81,2.64,19.71,19.71,0,0,1,.54,5.26v5.9a12.7,12.7,0,0,1,3.28-1.78,11.41,11.41,0,0,1,4.09-.77,14.58,14.58,0,0,1,9.08,2.78q3.64,2.79,3.65,9.48v19.9h-8.71V67.71c0-3.22-.57-5.56-1.71-7a5.26,5.26,0,0,0-4.32-2.21A8.34,8.34,0,0,0,253,60.81V87.27h-8.71Z"/><path class="cls-6" d="M282.42,85.5a8.08,8.08,0,0,1-3-6.6A9.32,9.32,0,0,1,281,73.34c1.05-1.48,2.9-2.59,5.53-3.35a41.5,41.5,0,0,1,11-1.14h1q0-5.84-1.61-8.28a5.32,5.32,0,0,0-4.76-2.44,6.9,6.9,0,0,0-4.29,1.27c-1.12.85-1.92,2.43-2.41,4.76h-3.68a21.58,21.58,0,0,1,.3-3.89,5.76,5.76,0,0,1,1.37-2.81q2.07-2.35,10.05-2.35,6.71,0,10.22,3.52t3.52,10.55V87.27h-5.7l-2.34-3h-.34a7.84,7.84,0,0,1-3.12,2.61,10.74,10.74,0,0,1-4.92,1.07Q285.4,87.94,282.42,85.5Zm13.94-2.25a8.12,8.12,0,0,0,2.18-3V71.86h-1q-4.75,0-6.9,1.71c-1.43,1.14-2.14,2.91-2.14,5.33a6.77,6.77,0,0,0,1.13,4.22,3.85,3.85,0,0,0,3.22,1.47A5.11,5.11,0,0,0,296.36,83.25Z"/><path class="cls-6" d="M315.5,51.76a10.61,10.61,0,0,0-.94-5.06c-.63-1.09-1.88-1.64-3.75-1.64h-.67v-2h8a6.88,6.88,0,0,1,3.68.81,4.4,4.4,0,0,1,1.81,2.64,19.71,19.71,0,0,1,.54,5.26V87.27H315.5Z"/><path class="cls-1" d="M162.12,110.58a8.36,8.36,0,0,1-11.5,0,9,9,0,0,1-2.12-6.34,9,9,0,0,1,2.12-6.33,8.36,8.36,0,0,1,11.5,0,9,9,0,0,1,2.12,6.33A9,9,0,0,1,162.12,110.58Zm-1.89-6.34c0-3.6-1.28-5.4-3.86-5.4s-3.86,1.8-3.86,5.4,1.28,5.41,3.86,5.41S160.23,107.85,160.23,104.24Z"/><path class="cls-1" d="M167.57,112.64a1.21,1.21,0,0,1-.91-.39,1.29,1.29,0,0,1-.38-.92V96.7a1.29,1.29,0,0,1,.38-.92,1.21,1.21,0,0,1,.91-.39h1.12a1.21,1.21,0,0,1,.91.39,1.25,1.25,0,0,1,.38.92v5.15s0,0,0,0,0,0,.05,0a5,5,0,0,1,3.43-1.4,4.08,4.08,0,0,1,3.4,1.61,7.32,7.32,0,0,1,1.27,4.6,7.13,7.13,0,0,1-1.31,4.56,4.12,4.12,0,0,1-3.36,1.65,4.6,4.6,0,0,1-3.64-1.7l0,0s0,0,0,0v.19a1.33,1.33,0,0,1-.4.93,1.27,1.27,0,0,1-.93.38Zm2.34-7.41v2.85a1.86,1.86,0,0,0,.69,1.41,2.35,2.35,0,0,0,1.61.62,2,2,0,0,0,1.68-.85,4.39,4.39,0,0,0,.62-2.6c0-2.3-.76-3.45-2.3-3.45a2.35,2.35,0,0,0-1.61.62A1.84,1.84,0,0,0,169.91,105.23Z"/><path class="cls-1" d="M184.29,108a7.26,7.26,0,0,1-3.55-1.43,3.24,3.24,0,0,1-1.07-2.55,3.14,3.14,0,0,1,1.27-2.66,6.46,6.46,0,0,1,3.85-1,19.55,19.55,0,0,1,3.11.25,1.45,1.45,0,0,1,.91.53,1.54,1.54,0,0,1,.36,1v.12a1,1,0,0,1-.38.78,1,1,0,0,1-.87.21,14,14,0,0,0-2.76-.3,2.63,2.63,0,0,0-1.32.23.75.75,0,0,0-.38.69c0,.58.46,1,1.38,1.15a7.38,7.38,0,0,1,3.67,1.38,3.48,3.48,0,0,1,1.05,2.73,3.13,3.13,0,0,1-1.29,2.68,6.21,6.21,0,0,1-3.75,1,16.12,16.12,0,0,1-3.4-.35,1.45,1.45,0,0,1-.91-.58,1.73,1.73,0,0,1-.36-1.07v-.19a.83.83,0,0,1,.39-.74,1,1,0,0,1,.88-.15,11.54,11.54,0,0,0,2.94.39c1.13,0,1.7-.33,1.7-1a.87.87,0,0,0-.31-.72A3,3,0,0,0,184.29,108Z"/><path class="cls-1" d="M197.47,112.87a6.77,6.77,0,0,1-4.82-1.59,6,6,0,0,1-1.69-4.62,6.44,6.44,0,0,1,1.51-4.61,5.66,5.66,0,0,1,4.35-1.6q5.48,0,5.57,6a1.17,1.17,0,0,1-.43.93,1.41,1.41,0,0,1-1,.38h-6.14c-.16,0-.22.07-.19.21a2.47,2.47,0,0,0,1,1.8,4.25,4.25,0,0,0,2.38.54,9.21,9.21,0,0,0,2.23-.3,1,1,0,0,1,.86.19.93.93,0,0,1,.38.78V111a1.72,1.72,0,0,1-.35,1,1.42,1.42,0,0,1-.91.57A15.57,15.57,0,0,1,197.47,112.87Zm-.58-9.91a2.08,2.08,0,0,0-1.56.54,3.07,3.07,0,0,0-.67,1.85c0,.12.06.18.16.18h3.89a.19.19,0,0,0,.21-.21C198.86,103.75,198.18,103,196.89,103Z"/><path class="cls-1" d="M205.59,112.64a1.2,1.2,0,0,1-.9-.39,1.25,1.25,0,0,1-.38-.92V102a1.25,1.25,0,0,1,.38-.92,1.2,1.2,0,0,1,.9-.39h1.13a1.23,1.23,0,0,1,.91.39,1.29,1.29,0,0,1,.38.92v1a0,0,0,0,0,0,0s.05,0,.05,0a5.62,5.62,0,0,1,4-2.24,1.06,1.06,0,0,1,.91.33,1.3,1.3,0,0,1,.37.94v.18a1.27,1.27,0,0,1-.37.92,1.46,1.46,0,0,1-.94.44,4.5,4.5,0,0,0-2.88,1.28,3.8,3.8,0,0,0-1,2.77v3.75a1.25,1.25,0,0,1-.38.92,1.2,1.2,0,0,1-.9.39Z"/><path class="cls-1" d="M217.75,111.4l-2.94-9.48a.93.93,0,0,1,.15-.85.91.91,0,0,1,.77-.39h1.38a1.64,1.64,0,0,1,1,.35,1.58,1.58,0,0,1,.57.91l1.93,8.54a0,0,0,0,0,0,0s0,0,0,0l1.94-8.54a1.52,1.52,0,0,1,.56-.91,1.64,1.64,0,0,1,1-.35h1.29a.91.91,0,0,1,.77.39.93.93,0,0,1,.15.85l-2.94,9.48a1.82,1.82,0,0,1-.66.89,1.72,1.72,0,0,1-1,.35h-2.3a1.76,1.76,0,0,1-1.07-.35A1.67,1.67,0,0,1,217.75,111.4Z"/><path class="cls-1" d="M231,112.87a3.5,3.5,0,0,1-2.61-1,3.55,3.55,0,0,1-1-2.65q0-4.18,6.21-4.19h.83q.21,0,.21-.18v-.12a1.59,1.59,0,0,0-.45-1.26,2.3,2.3,0,0,0-1.51-.39,15.73,15.73,0,0,0-3.35.43,1,1,0,0,1-.87-.2,1,1,0,0,1-.38-.78v0a1.71,1.71,0,0,1,.36-1,1.41,1.41,0,0,1,.91-.56,18.82,18.82,0,0,1,3.49-.39c2,0,3.43.36,4.27,1.08a4.5,4.5,0,0,1,1.25,3.59v6.21a1.26,1.26,0,0,1-.39.92,1.25,1.25,0,0,1-.92.39h-.85a1.35,1.35,0,0,1-1.35-1.31v-.26s0,0,0,0,0,0,0,0A4.6,4.6,0,0,1,231,112.87Zm2.57-5.71c-1.87,0-2.8.58-2.8,1.73a1.3,1.3,0,0,0,.37,1,1.37,1.37,0,0,0,1,.35,2.4,2.4,0,0,0,1.8-.7,2.55,2.55,0,0,0,.69-1.87v-.28a.19.19,0,0,0-.21-.21Z"/><path class="cls-1" d="M241.17,103.74a1.31,1.31,0,0,1-.92-.38,1.24,1.24,0,0,1-.39-.91,1.26,1.26,0,0,1,.39-.92,1.28,1.28,0,0,1,.92-.39h.92c.13,0,.19-.07.19-.21V98.08a1.33,1.33,0,0,1,1.31-1.31h1.1a1.25,1.25,0,0,1,.92.39,1.26,1.26,0,0,1,.39.92v2.85a.19.19,0,0,0,.21.21h2.26a1.2,1.2,0,0,1,.9.39,1.25,1.25,0,0,1,.38.92,1.3,1.3,0,0,1-1.28,1.29h-2.26a.18.18,0,0,0-.21.2v3.94a3.88,3.88,0,0,0,.27,1.84c.18.26.57.39,1.18.39a4.77,4.77,0,0,0,.76,0,1.19,1.19,0,0,1,.9.23.94.94,0,0,1,.39.78v.19a1.5,1.5,0,0,1-.37,1,1.42,1.42,0,0,1-.94.51,13.49,13.49,0,0,1-1.66.09,4.49,4.49,0,0,1-3.3-1,5.27,5.27,0,0,1-.95-3.6v-4.33c0-.13-.06-.2-.19-.2Z"/><path class="cls-1" d="M261.48,111.24a6.86,6.86,0,0,1-8.88,0,7.39,7.39,0,0,1,0-9.16,6.86,6.86,0,0,1,8.88,0,7.43,7.43,0,0,1,0,9.16Zm-2.73-7.34a2.16,2.16,0,0,0-3.43,0,7.08,7.08,0,0,0,0,5.52,2.16,2.16,0,0,0,3.43,0,7.08,7.08,0,0,0,0-5.52Z"/><path class="cls-1" d="M266.25,112.64a1.24,1.24,0,0,1-.91-.39,1.29,1.29,0,0,1-.38-.92V102a1.29,1.29,0,0,1,.38-.92,1.24,1.24,0,0,1,.91-.39h1.13a1.24,1.24,0,0,1,.91.39,1.29,1.29,0,0,1,.38.92v1s0,0,0,0,.05,0,.05,0a5.6,5.6,0,0,1,4-2.24,1,1,0,0,1,.91.33,1.27,1.27,0,0,1,.38.94v.18a1.24,1.24,0,0,1-.38.92,1.41,1.41,0,0,1-.93.44,4.55,4.55,0,0,0-2.89,1.28,3.83,3.83,0,0,0-1,2.77v3.75a1.25,1.25,0,0,1-.38.92,1.21,1.21,0,0,1-.91.39Z"/><path class="cls-1" d="M279.41,112.45l-3.89-10.55a.81.81,0,0,1,.1-.83.86.86,0,0,1,.75-.39h1.45a1.66,1.66,0,0,1,1.61,1.26l1.75,7.16s0,0,0,0a0,0,0,0,0,0,0l2.09-7.18a1.56,1.56,0,0,1,.61-.9,1.77,1.77,0,0,1,1.07-.34h1.27a.92.92,0,0,1,.85,1.22l-5.43,14.58a1.82,1.82,0,0,1-.69.88,1.78,1.78,0,0,1-1.06.34h-1.27a.85.85,0,0,1-.8-1.2l1.54-3.68a.55.55,0,0,0,0-.18A.65.65,0,0,0,279.41,112.45Z"/><path class="cls-1" d="M296.43,103.74a1.29,1.29,0,0,1-.92-.38,1.24,1.24,0,0,1-.39-.91,1.33,1.33,0,0,1,1.31-1.31h1q.18,0,.18-.21v-.41a5.14,5.14,0,0,1,1.16-3.73,5,5,0,0,1,3.65-1.17,10,10,0,0,1,1.42.09,1.35,1.35,0,0,1,.92.53,1.59,1.59,0,0,1,.37,1v.07a.9.9,0,0,1-.39.77,1.09,1.09,0,0,1-.87.22l-.53,0a2,2,0,0,0-1.51.44,2.81,2.81,0,0,0-.38,1.74v.44a.19.19,0,0,0,.21.21h1.93a1.33,1.33,0,0,1,1.31,1.31,1.24,1.24,0,0,1-.39.91,1.29,1.29,0,0,1-.92.38H301.7a.18.18,0,0,0-.21.2v7.39a1.33,1.33,0,0,1-1.31,1.31H299a1.33,1.33,0,0,1-1.31-1.31v-7.39c0-.13-.06-.2-.18-.2Z"/><path class="cls-1" d="M316.71,111.24a6.86,6.86,0,0,1-8.88,0,7.39,7.39,0,0,1,0-9.16,6.86,6.86,0,0,1,8.88,0,7.43,7.43,0,0,1,0,9.16ZM314,103.9a1.89,1.89,0,0,0-1.71-.85,1.92,1.92,0,0,0-1.72.85,7.08,7.08,0,0,0,0,5.52,1.92,1.92,0,0,0,1.72.85,1.89,1.89,0,0,0,1.71-.85,7.08,7.08,0,0,0,0-5.52Z"/><path class="cls-1" d="M321.48,112.64a1.24,1.24,0,0,1-.91-.39,1.29,1.29,0,0,1-.38-.92V102a1.29,1.29,0,0,1,.38-.92,1.24,1.24,0,0,1,.91-.39h1.13a1.23,1.23,0,0,1,.91.39,1.29,1.29,0,0,1,.38.92v1a0,0,0,0,0,0,0s.05,0,.05,0a5.6,5.6,0,0,1,4-2.24,1,1,0,0,1,.9.33,1.27,1.27,0,0,1,.38.94v.18a1.24,1.24,0,0,1-.38.92,1.41,1.41,0,0,1-.93.44,4.5,4.5,0,0,0-2.88,1.28,3.8,3.8,0,0,0-1,2.77v3.75a1.25,1.25,0,0,1-.38.92,1.21,1.21,0,0,1-.91.39Z"/><path class="cls-1" d="M151.31,136.64a1.33,1.33,0,0,1-1.31-1.31V121.16a1.33,1.33,0,0,1,1.31-1.31h7.89a1.33,1.33,0,0,1,1.31,1.31v.53A1.33,1.33,0,0,1,159.2,123h-5.08q-.21,0-.21.18v3.43a.19.19,0,0,0,.21.21h4.62a1.25,1.25,0,0,1,.92.38,1.2,1.2,0,0,1,.39.9v.37a1.21,1.21,0,0,1-.39.91,1.25,1.25,0,0,1-.92.38h-4.62a.19.19,0,0,0-.21.21v5.36a1.29,1.29,0,0,1-.38.92,1.23,1.23,0,0,1-.91.39Z"/><path class="cls-1" d="M163.07,136.64a1.21,1.21,0,0,1-.91-.39,1.29,1.29,0,0,1-.38-.92V126a1.29,1.29,0,0,1,.38-.92,1.21,1.21,0,0,1,.91-.39h1.12a1.21,1.21,0,0,1,.91.39,1.25,1.25,0,0,1,.38.92v1s0,0,0,0,0,0,0,0a5.62,5.62,0,0,1,4-2.24,1,1,0,0,1,.91.33,1.31,1.31,0,0,1,.38.94v.18a1.28,1.28,0,0,1-.38.92,1.41,1.41,0,0,1-.93.44,4.52,4.52,0,0,0-2.89,1.28,3.83,3.83,0,0,0-1,2.77v3.75a1.29,1.29,0,0,1-.38.92,1.24,1.24,0,0,1-.91.39Z"/><path class="cls-1" d="M177.87,136.87a6.75,6.75,0,0,1-4.82-1.59,6,6,0,0,1-1.69-4.62,6.48,6.48,0,0,1,1.5-4.61,5.7,5.7,0,0,1,4.36-1.6q5.47,0,5.57,6a1.17,1.17,0,0,1-.43.93,1.44,1.44,0,0,1-1,.38h-6.14q-.23,0-.18.21a2.47,2.47,0,0,0,1,1.8,4.25,4.25,0,0,0,2.38.54,9.21,9.21,0,0,0,2.23-.3,1,1,0,0,1,.86.19,1,1,0,0,1,.38.78v0a1.66,1.66,0,0,1-.36,1,1.4,1.4,0,0,1-.9.57A15.57,15.57,0,0,1,177.87,136.87Zm-.58-9.91a2.08,2.08,0,0,0-1.56.54,3,3,0,0,0-.67,1.85c0,.12.05.18.16.18h3.89c.14,0,.2-.07.2-.21C179.25,127.75,178.58,127,177.29,127Z"/><path class="cls-1" d="M190.13,136.87a6.77,6.77,0,0,1-4.82-1.59,6,6,0,0,1-1.69-4.62,6.44,6.44,0,0,1,1.51-4.61,5.67,5.67,0,0,1,4.36-1.6c3.64,0,5.5,2,5.56,6a1.2,1.2,0,0,1-.42.93,1.45,1.45,0,0,1-1,.38h-6.14c-.16,0-.22.07-.19.21a2.5,2.5,0,0,0,1,1.8,4.25,4.25,0,0,0,2.38.54,9.15,9.15,0,0,0,2.23-.3,1,1,0,0,1,.86.19.93.93,0,0,1,.38.78v0a1.65,1.65,0,0,1-.35,1,1.42,1.42,0,0,1-.91.57A15.57,15.57,0,0,1,190.13,136.87Zm-.58-9.91a2.08,2.08,0,0,0-1.56.54,3.14,3.14,0,0,0-.67,1.85c0,.12.06.18.16.18h3.89a.19.19,0,0,0,.21-.21C191.52,127.75,190.84,127,189.55,127Z"/><path class="cls-1" d="M200.61,136.87a4.12,4.12,0,0,1-3.36-1.65,7.13,7.13,0,0,1-1.31-4.56,7.26,7.26,0,0,1,1.27-4.6,4.07,4.07,0,0,1,3.4-1.61,5,5,0,0,1,3.43,1.4,0,0,0,0,0,0,0s0,0,0,0V120.7a1.25,1.25,0,0,1,.38-.92,1.2,1.2,0,0,1,.9-.39h1.13a1.23,1.23,0,0,1,.91.39,1.29,1.29,0,0,1,.38.92v14.63a1.29,1.29,0,0,1-.38.92,1.23,1.23,0,0,1-.91.39h-.87a1.27,1.27,0,0,1-.93-.38,1.33,1.33,0,0,1-.41-.93v-.19s0,0,0,0l0,0A4.57,4.57,0,0,1,200.61,136.87Zm1.26-9.66c-1.53,0-2.29,1.15-2.29,3.45a4.39,4.39,0,0,0,.62,2.6,2,2,0,0,0,1.67.85,2.36,2.36,0,0,0,1.62-.62,1.85,1.85,0,0,0,.68-1.41v-2.85a1.83,1.83,0,0,0-.68-1.4A2.36,2.36,0,0,0,201.87,127.21Z"/><path class="cls-1" d="M219.82,135.24a6.86,6.86,0,0,1-8.88,0,7.39,7.39,0,0,1,0-9.16,6.86,6.86,0,0,1,8.88,0,7.43,7.43,0,0,1,0,9.16Zm-2.73-7.34a2.16,2.16,0,0,0-3.43,0,7.08,7.08,0,0,0,0,5.52,2.16,2.16,0,0,0,3.43,0,7.08,7.08,0,0,0,0-5.52Z"/><path class="cls-1" d="M224.16,136.64a1.35,1.35,0,0,1-1.32-1.31V126a1.35,1.35,0,0,1,1.32-1.31H225a1.26,1.26,0,0,1,.93.38,1.44,1.44,0,0,1,.42.93l0,.21s0,0,0,0,.05,0,.05,0a3.87,3.87,0,0,1,3.1-1.75,3.12,3.12,0,0,1,1.68.38,3.49,3.49,0,0,1,1.15,1.34s0,0,.05,0l0,0a4.53,4.53,0,0,1,3.31-1.72,3.5,3.5,0,0,1,2.83,1,5.57,5.57,0,0,1,.88,3.56v6.28a1.26,1.26,0,0,1-.39.92,1.28,1.28,0,0,1-.92.39h-1a1.33,1.33,0,0,1-1.31-1.31v-6.05a3.34,3.34,0,0,0-.27-1.65,1.2,1.2,0,0,0-1-.4,1.55,1.55,0,0,0-1,.44,1.19,1.19,0,0,0-.5.85v6.81a1.26,1.26,0,0,1-.39.92,1.25,1.25,0,0,1-.92.39h-1a1.33,1.33,0,0,1-1.31-1.31v-6.05a3.34,3.34,0,0,0-.27-1.65,1.14,1.14,0,0,0-1-.4,1.57,1.57,0,0,0-1,.44,1.18,1.18,0,0,0-.51.85v6.81a1.33,1.33,0,0,1-1.31,1.31Z"/><path class="cls-1" d="M257.62,135.24a6.86,6.86,0,0,1-8.88,0,7.39,7.39,0,0,1,0-9.16,6.86,6.86,0,0,1,8.88,0,7.39,7.39,0,0,1,0,9.16Zm-2.73-7.34a2.15,2.15,0,0,0-3.42,0,7,7,0,0,0,0,5.52,2.15,2.15,0,0,0,3.42,0,7,7,0,0,0,0-5.52Z"/><path class="cls-1" d="M261.09,127.74a1.29,1.29,0,0,1-.92-.38,1.24,1.24,0,0,1-.39-.91,1.33,1.33,0,0,1,1.31-1.31h1c.13,0,.19-.07.19-.21v-.41a5.14,5.14,0,0,1,1.16-3.73,5,5,0,0,1,3.65-1.17,10,10,0,0,1,1.42.09,1.35,1.35,0,0,1,.92.53,1.59,1.59,0,0,1,.37,1v.07a.9.9,0,0,1-.39.77,1.11,1.11,0,0,1-.88.22l-.52,0a2,2,0,0,0-1.51.44,2.81,2.81,0,0,0-.38,1.74v.44a.19.19,0,0,0,.21.21h1.93a1.33,1.33,0,0,1,1.31,1.31,1.24,1.24,0,0,1-.39.91,1.29,1.29,0,0,1-.92.38h-1.93a.18.18,0,0,0-.21.2v7.39a1.33,1.33,0,0,1-1.31,1.31h-1.22a1.33,1.33,0,0,1-1.31-1.31v-7.39c0-.13-.06-.2-.19-.2Z"/><path class="cls-1" d="M279.81,136.64a1.24,1.24,0,0,1-.91-.39,1.29,1.29,0,0,1-.38-.92V121.16a1.29,1.29,0,0,1,.38-.92,1.24,1.24,0,0,1,.91-.39H288a1.21,1.21,0,0,1,.91.39,1.25,1.25,0,0,1,.38.92v.53a1.25,1.25,0,0,1-.38.92,1.21,1.21,0,0,1-.91.39h-5.33c-.13,0-.19.06-.19.18v3c0,.14.06.21.19.21h4.87a1.21,1.21,0,0,1,.91.39,1.25,1.25,0,0,1,.38.92v.34a1.25,1.25,0,0,1-.38.92,1.21,1.21,0,0,1-.91.39h-4.87a.17.17,0,0,0-.19.19v3.72a.17.17,0,0,0,.19.19H288a1.21,1.21,0,0,1,.91.39,1.25,1.25,0,0,1,.38.92v.53a1.25,1.25,0,0,1-.38.92,1.21,1.21,0,0,1-.91.39Z"/><path class="cls-1" d="M291.39,136.64a.69.69,0,0,1-.65-.37.68.68,0,0,1,0-.76l2.76-4.81a.31.31,0,0,0,0-.32l-2.65-4.58a.7.7,0,0,1,0-.75.71.71,0,0,1,.66-.37h1.38A2,2,0,0,1,294,125a2.17,2.17,0,0,1,.76.86l1.28,2.79s0,0,0,0l0,0,1.29-2.79a2,2,0,0,1,.73-.86,2,2,0,0,1,1.11-.33h1.29a.7.7,0,0,1,.63.37.72.72,0,0,1,0,.75l-2.64,4.58a.24.24,0,0,0,0,.32l2.76,4.81a.74.74,0,0,1,0,.76.67.67,0,0,1-.63.37h-1.38a2.08,2.08,0,0,1-1.11-.32,1.86,1.86,0,0,1-.75-.85l-1.38-3,0,0s0,0,0,0l-1.38,3a2,2,0,0,1-.77.85,2.06,2.06,0,0,1-1.09.32Z"/><path class="cls-1" d="M303.9,141.7a1.25,1.25,0,0,1-.92-.39,1.27,1.27,0,0,1-.4-.92V126a1.27,1.27,0,0,1,.4-.92,1.25,1.25,0,0,1,.92-.39h.92a1.35,1.35,0,0,1,1.35,1.31v.18a0,0,0,0,0,0,0l0,0a4.53,4.53,0,0,1,3.54-1.7,4.12,4.12,0,0,1,3.42,1.61,7.26,7.26,0,0,1,1.28,4.6,7,7,0,0,1-1.33,4.55,4.11,4.11,0,0,1-3.37,1.66,4.86,4.86,0,0,1-3.4-1.4.05.05,0,0,0-.05,0s0,0,0,0v4.92A1.33,1.33,0,0,1,305,141.7Zm2.32-12.47v2.85a1.87,1.87,0,0,0,.7,1.4,2.33,2.33,0,0,0,1.6.63,2,2,0,0,0,1.68-.86,4.48,4.48,0,0,0,.62-2.59c0-2.3-.77-3.45-2.3-3.45a2.33,2.33,0,0,0-1.6.63A1.85,1.85,0,0,0,306.22,129.23Z"/><path class="cls-1" d="M317.33,136.64a1.23,1.23,0,0,1-.91-.39,1.29,1.29,0,0,1-.38-.92V126a1.29,1.29,0,0,1,.38-.92,1.23,1.23,0,0,1,.91-.39h1.13a1.24,1.24,0,0,1,.91.39,1.29,1.29,0,0,1,.38.92v1s0,0,0,0,0,0,0,0a5.62,5.62,0,0,1,4-2.24,1,1,0,0,1,.91.33,1.27,1.27,0,0,1,.38.94v.18a1.24,1.24,0,0,1-.38.92,1.41,1.41,0,0,1-.93.44,4.55,4.55,0,0,0-2.89,1.28,3.83,3.83,0,0,0-1,2.77v3.75a1.29,1.29,0,0,1-.38.92,1.23,1.23,0,0,1-.91.39Z"/><path class="cls-1" d="M332.13,136.87a6.77,6.77,0,0,1-4.82-1.59,6,6,0,0,1-1.69-4.62,6.44,6.44,0,0,1,1.51-4.61,5.67,5.67,0,0,1,4.36-1.6c3.64,0,5.5,2,5.56,6a1.2,1.2,0,0,1-.42.93,1.45,1.45,0,0,1-1,.38h-6.14c-.16,0-.22.07-.19.21a2.5,2.5,0,0,0,1,1.8,4.25,4.25,0,0,0,2.38.54,9.15,9.15,0,0,0,2.23-.3,1,1,0,0,1,.86.19.93.93,0,0,1,.38.78v0a1.65,1.65,0,0,1-.35,1,1.42,1.42,0,0,1-.91.57A15.57,15.57,0,0,1,332.13,136.87Zm-.58-9.91a2.08,2.08,0,0,0-1.56.54,3.14,3.14,0,0,0-.67,1.85c0,.12.06.18.16.18h3.89a.19.19,0,0,0,.21-.21C333.52,127.75,332.84,127,331.55,127Z"/><path class="cls-1" d="M342.68,132a7.34,7.34,0,0,1-3.56-1.43,3.27,3.27,0,0,1-1.07-2.55,3.15,3.15,0,0,1,1.28-2.66,6.46,6.46,0,0,1,3.85-1,19.55,19.55,0,0,1,3.11.25,1.45,1.45,0,0,1,.91.53,1.59,1.59,0,0,1,.35,1v.12a.93.93,0,0,1-.38.78,1,1,0,0,1-.86.21,14.15,14.15,0,0,0-2.76-.3,2.63,2.63,0,0,0-1.32.23.75.75,0,0,0-.38.69c0,.58.46,1,1.38,1.15a7.38,7.38,0,0,1,3.67,1.38,3.51,3.51,0,0,1,1,2.73,3.15,3.15,0,0,1-1.28,2.68,6.21,6.21,0,0,1-3.75,1,16.29,16.29,0,0,1-3.41-.35,1.48,1.48,0,0,1-.91-.58,1.78,1.78,0,0,1-.35-1.07v-.19a.83.83,0,0,1,.39-.74,1,1,0,0,1,.87-.15,11.67,11.67,0,0,0,2.95.39c1.13,0,1.7-.33,1.7-1a.9.9,0,0,0-.31-.72A3.12,3.12,0,0,0,342.68,132Z"/><path class="cls-1" d="M353.65,132a7.3,7.3,0,0,1-3.55-1.43,3.27,3.27,0,0,1-1.07-2.55,3.15,3.15,0,0,1,1.28-2.66,6.44,6.44,0,0,1,3.85-1,19.64,19.64,0,0,1,3.11.25,1.43,1.43,0,0,1,.9.53,1.54,1.54,0,0,1,.36,1v.12a1,1,0,0,1-.38.78,1,1,0,0,1-.86.21,14.15,14.15,0,0,0-2.76-.3,2.63,2.63,0,0,0-1.32.23.74.74,0,0,0-.38.69c0,.58.46,1,1.38,1.15a7.34,7.34,0,0,1,3.66,1.38,3.48,3.48,0,0,1,1.05,2.73,3.13,3.13,0,0,1-1.29,2.68,6.19,6.19,0,0,1-3.75,1,16.19,16.19,0,0,1-3.4-.35,1.48,1.48,0,0,1-.91-.58,1.72,1.72,0,0,1-.35-1.07v-.19a.83.83,0,0,1,.39-.74,1,1,0,0,1,.87-.15,11.66,11.66,0,0,0,2.94.39q1.71,0,1.71-1a.9.9,0,0,0-.31-.72A3.11,3.11,0,0,0,353.65,132Z"/><path class="cls-1" d="M362.15,122.38a1.33,1.33,0,0,1-1.31-1.31v-.37a1.33,1.33,0,0,1,1.31-1.31h1.29a1.33,1.33,0,0,1,1.31,1.31v.37a1.33,1.33,0,0,1-1.31,1.31Zm0,14.26a1.33,1.33,0,0,1-1.31-1.31V126a1.33,1.33,0,0,1,1.31-1.31h1.29a1.33,1.33,0,0,1,1.31,1.31v9.34a1.33,1.33,0,0,1-1.31,1.31Z"/><path class="cls-1" d="M376.94,135.24a6.86,6.86,0,0,1-8.88,0,7.39,7.39,0,0,1,0-9.16,6.86,6.86,0,0,1,8.88,0,7.43,7.43,0,0,1,0,9.16Zm-2.73-7.34a2.16,2.16,0,0,0-3.43,0,7.08,7.08,0,0,0,0,5.52,2.16,2.16,0,0,0,3.43,0,7.08,7.08,0,0,0,0-5.52Z"/><path class="cls-1" d="M381.25,136.64a1.24,1.24,0,0,1-.91-.39,1.29,1.29,0,0,1-.38-.92V126a1.29,1.29,0,0,1,.38-.92,1.24,1.24,0,0,1,.91-.39h.94a1.27,1.27,0,0,1,.94.38,1.37,1.37,0,0,1,.4.93l0,.18s0,0,0,0l.05,0a4.63,4.63,0,0,1,3.59-1.7,3.58,3.58,0,0,1,3,1.18,6.77,6.77,0,0,1,.92,4v5.66a1.29,1.29,0,0,1-.38.92,1.21,1.21,0,0,1-.91.39h-1a1.33,1.33,0,0,1-1.31-1.31v-5.55a3.4,3.4,0,0,0-.37-1.89,1.51,1.51,0,0,0-1.33-.52,2.14,2.14,0,0,0-1.49.65,2,2,0,0,0-.67,1.42v5.89a1.29,1.29,0,0,1-.38.92,1.24,1.24,0,0,1-.91.39Z"/></svg>